HIERARCHY
ROOT hip
{
  OFFSET 0 0 0
  CHANNELS 6 Xposition Yposition Zposition Zrotation Yrotation Xrotation
  JOINT abdomen
  {
    OFFSET 0 20.6881 -0.73152
    CHANNELS 3 Zrotation Xrotation Yrotation
    JOINT chest
    {
      OFFSET 0 11.7043 -0.48768
      CHANNELS 3 Zrotation Xrotation Yrotation
      JOINT neck
      {
        OFFSET 0 22.1894 -2.19456
        CHANNELS 3 Zrotation Xrotation Yrotation
        JOINT head
        {
          OFFSET -0.24384 7.07133 1.2192
          CHANNELS 3 Zrotation Xrotation Yrotation
          JOINT leftEye
          {
            OFFSET 4.14528 8.04674 8.04672
            CHANNELS 3 Zrotation Xrotation Yrotation
            End Site
            {
              OFFSET 1 0 0
            }
          }
          JOINT rightEye
          {
            OFFSET -3.6576 8.04674 8.04672
            CHANNELS 3 Zrotation Xrotation Yrotation
            End Site
            {
              OFFSET 1 0 0
            }
          }
        }
      }
      JOINT rCollar
      {
        OFFSET -2.68224 19.2634 -4.8768
        CHANNELS 3 Zrotation Xrotation Yrotation
        JOINT rShldr
        {
          OFFSET -8.77824 -1.95073 1.46304
          CHANNELS 3 Zrotation Xrotation Yrotation
          JOINT rForeArm
          {
            OFFSET -28.1742 -1.7115 0.48768
            CHANNELS 3 Zrotation Xrotation Yrotation
            JOINT rHand
            {
              OFFSET -22.5879 0.773209 7.07136
              CHANNELS 3 Zrotation Xrotation Yrotation
              JOINT rThumb1
              {
                OFFSET -1.2192 -0.487915 3.41376
                CHANNELS 3 Zrotation Xrotation Yrotation
                JOINT rThumb2
                {
                  OFFSET -3.37035 -0.52449 3.41376
                  CHANNELS 3 Zrotation Xrotation Yrotation
                  End Site
                  {
                    OFFSET -1.78271 -1.18214 1.43049
                  }
                }
              }
              JOINT rIndex1
              {
                OFFSET -7.75947 0.938293 5.60832
                CHANNELS 3 Zrotation Xrotation Yrotation
                JOINT rIndex2
                {
                  OFFSET -2.54057 -0.884171 1.56538
                  CHANNELS 3 Zrotation Xrotation Yrotation
                  End Site
                  {
                    OFFSET -1.62519 -0.234802 1.16502
                  }
                }
              }
              JOINT rMid1
              {
                OFFSET -8.24714 1.18213 3.41376
                CHANNELS 3 Zrotation Xrotation Yrotation
                JOINT rMid2
                {
                  OFFSET -3.10165 -0.590103 1.0647
                  CHANNELS 3 Zrotation Xrotation Yrotation
                  End Site
                  {
                    OFFSET -2.48547 -0.328903 0.83742
                  }
                }
              }
              JOINT rRing1
              {
                OFFSET -8.82822 0.546677 1.51678
                CHANNELS 3 Zrotation Xrotation Yrotation
                JOINT rRing2
                {
                  OFFSET -2.60934 -0.819778 -0.0198488
                  CHANNELS 3 Zrotation Xrotation Yrotation
                  End Site
                  {
                    OFFSET -2.33842 -0.294052 0.168128
                  }
                }
              }
              JOINT rPinky1
              {
                OFFSET -8.27202 -0.0477905 -0.4584
                CHANNELS 3 Zrotation Xrotation Yrotation
                JOINT rPinky2
                {
                  OFFSET -1.82734 -0.647385 -0.700984
                  CHANNELS 3 Zrotation Xrotation Yrotation
                  End Site
                  {
                    OFFSET -1.69225 -0.51767 -0.607171
                  }
                }
              }
            }
          }
        }
      }
      JOINT lCollar
      {
        OFFSET 2.68224 19.2634 -4.8768
        CHANNELS 3 Zrotation Xrotation Yrotation
        JOINT lShldr
        {
          OFFSET 8.77824 -1.95073 1.46304
          CHANNELS 3 Zrotation Xrotation Yrotation
          JOINT lForeArm
          {
            OFFSET 28.1742 -1.7115 0.48768
            CHANNELS 3 Zrotation Xrotation Yrotation
            JOINT lHand
            {
              OFFSET 22.5879 0.773209 7.07136
              CHANNELS 3 Zrotation Xrotation Yrotation
              JOINT lThumb1
              {
                OFFSET 1.2192 -0.487915 3.41376
                CHANNELS 3 Zrotation Xrotation Yrotation
                JOINT lThumb2
                {
                  OFFSET 3.37035 -0.52449 3.41376
                  CHANNELS 3 Zrotation Xrotation Yrotation
                  End Site
                  {
                    OFFSET 1.78271 -1.18214 1.43049
                  }
                }
              }
              JOINT lIndex1
              {
                OFFSET 7.75947 0.938293 5.60832
                CHANNELS 3 Zrotation Xrotation Yrotation
                JOINT lIndex2
                {
                  OFFSET 2.54057 -0.884171 1.56538
                  CHANNELS 3 Zrotation Xrotation Yrotation
                  End Site
                  {
                    OFFSET 1.62519 -0.234802 1.16502
                  }
                }
              }
              JOINT lMid1
              {
                OFFSET 8.24714 1.18213 3.41376
                CHANNELS 3 Zrotation Xrotation Yrotation
                JOINT lMid2
                {
                  OFFSET 3.10165 -0.590103 1.0647
                  CHANNELS 3 Zrotation Xrotation Yrotation
                  End Site
                  {
                    OFFSET 2.48547 -0.328903 0.83742
                  }
                }
              }
              JOINT lRing1
              {
                OFFSET 8.82822 0.546677 1.51678
                CHANNELS 3 Zrotation Xrotation Yrotation
                JOINT lRing2
                {
                  OFFSET 2.60934 -0.819778 -0.0198488
                  CHANNELS 3 Zrotation Xrotation Yrotation
                  End Site
                  {
                    OFFSET 2.33842 -0.294052 0.168128
                  }
                }
              }
              JOINT lPinky1
              {
                OFFSET 8.27202 -0.0477905 -0.4584
                CHANNELS 3 Zrotation Xrotation Yrotation
                JOINT lPinky2
                {
                  OFFSET 1.82734 -0.647385 -0.700984
                  CHANNELS 3 Zrotation Xrotation Yrotation
                  End Site
                  {
                    OFFSET 1.69225 -0.51767 -0.607171
                  }
                }
              }
            }
          }
        }
      }
    }
  }
  JOINT rButtock
  {
    OFFSET -8.77824 4.35084 1.2192
    CHANNELS 3 Zrotation Xrotation Yrotation
    JOINT rThigh
    {
      OFFSET 0 -1.70687 -2.19456
      CHANNELS 3 Zrotation Xrotation Yrotation
      JOINT rShin
      {
        OFFSET 0 -36.8199 0.73152
        CHANNELS 3 Zrotation Xrotation Yrotation
        JOINT rFoot
        {
          OFFSET 0.73152 -45.1104 -5.12064
          CHANNELS 3 Zrotation Xrotation Yrotation
          End Site
          {
            OFFSET -1.1221 -3.69964 12.103
          }
        }
      }
    }
  }
  JOINT lButtock
  {
    OFFSET 8.77824 4.35084 1.2192
    CHANNELS 3 Zrotation Xrotation Yrotation
    JOINT lThigh
    {
      OFFSET 0 -1.70687 -2.19456
      CHANNELS 3 Zrotation Xrotation Yrotation
      JOINT lShin
      {
        OFFSET 0 -36.8199 0.73152
        CHANNELS 3 Zrotation Xrotation Yrotation
        JOINT lFoot
        {
          OFFSET -0.73152 -45.1104 -5.12064
          CHANNELS 3 Zrotation Xrotation Yrotation
          End Site
          {
            OFFSET 1.1221 -3.69964 12.103
          }
        }
      }
    }
  }
}
MOTION
Frames:	8
Frame Time:	0.00833333
-141.791 84.0842 26.935 0.0 0.0 0.0 -1.54496 -0.00284634 -0.0420521 -0.425432 0.00110975 -0.0736766 1.49362e-14 -1.59028e-15 1.73937e-16 4.47576e-14 3.18055e-15 4.69008e-16 -0.0 0.0 0.0 -0.0 0.0 0.0 7.45342e-15 1.28123e-17 2.48481e-16 1.57849e-13 2.54693e-16 3.18055e-15 2.69448e-12 -7.99711e-13 -1.27222e-14 3.08582e-11 8.55271e-13 4.26194e-13 7.27829e-11 1.16015e-13 9.1918e-13 1.25686e-10 1.94014e-13 1.57676e-12 7.27906e-11 1.17681e-13 9.06458e-13 7.73091 5.47488 0.417314 7.27829e-11 1.16488e-13 9.1918e-13 2.90554 0.965183 0.102902 7.27947e-11 1.16786e-13 9.16795e-13 10.2786 0.731801 0.0259123 7.27848e-11 1.16885e-13 9.25541e-13 2.22167 -0.733487 -0.20892 7.35653e-15 1.16475e-17 -1.49089e-16 1.5434e-13 4.84538e-16 1.98785e-15 2.69761e-12 8.18794e-13 1.59028e-14 3.08541e-11 -7.50263e-13 4.16653e-13 7.27855e-11 1.42879e-13 9.1918e-13 1.25709e-10 2.44903e-13 1.59664e-12 7.27782e-11 1.47896e-13 9.31903e-13 -7.73091 5.47488 -0.417314 7.27839e-11 1.43523e-13 9.16e-13 -2.90554 0.965183 -0.102902 7.27723e-11 1.43622e-13 9.19975e-13 -10.2786 0.731801 -0.0259123 7.27838e-11 1.41535e-13 9.09639e-13 -2.22167 -0.733487 0.20892 -2.03217e-16 0.0 -3.88251e-19 -0.631485 -1.92333 -0.00658909 -0.00945217 -2.07853 -0.0781743 -0.541045 3.99724 0.144582 2.03217e-16 0.0 3.88251e-19 -1.71418 -6.54909 0.158522 -0.00227304 6.30066 -0.0690933 0.559225 0.24395 -0.0686154
-142.196 83.0582 16.4279 -179.938 -1.5969 -177.432 -3.10413 -1.67043 0.850002 0.340349 0.788738 0.189144 2.38052 4.01728 0.94656 -1.31788 -14.6623 0.611416 -0.0 0.0 0.0 -0.0 0.0 0.0 5.05361e-15 -3.90493e-15 1.41436e-14 23.7981 0.166983 1.36654 -1.94367 -0.665692 3.23096 0.0996297 7.01617 0.959629 -1.65549e-10 1.5219e-10 -3.77101e-11 -2.86894e-10 2.61746e-10 -6.06253e-11 -1.65537e-10 1.52188e-10 -3.77212e-11 7.73091 5.47488 0.417314 -1.65545e-10 1.52187e-10 -3.77084e-11 2.90554 0.965183 0.102902 -1.65534e-10 1.52187e-10 -3.771e-11 10.2786 0.731801 0.0259123 -1.6555e-10 1.5219e-10 -3.7703e-11 2.22167 -0.733487 -0.20892 4.97997e-15 -3.91494e-15 1.37313e-14 -22.22 -2.42661 -1.90234 1.33752 -0.417517 -2.25025 -0.0986297 6.97622 -0.954397 -2.81821e-12 -5.72637e-11 -1.88049e-10 -8.5615e-12 -1.00724e-10 -3.23581e-10 -2.82412e-12 -5.72601e-11 -1.88036e-10 -7.73091 5.47488 -0.417314 -2.81862e-12 -5.72629e-11 -1.88052e-10 -2.90554 0.965183 -0.102902 -2.82738e-12 -5.72627e-11 -1.88049e-10 -10.2786 0.731801 -0.0259123 -2.81683e-12 -5.72635e-11 -1.8806e-10 -2.22167 -0.733487 0.20892 -2.03217e-16 0.0 -3.88251e-19 -3.91536 -3.46193 2.07863 -0.0158901 1.92718 -0.0427474 -0.587603 4.08412 -5.33436 2.03217e-16 0.0 3.88251e-19 -1.92098 -8.28141 1.58458 -0.00994486 12.9792 -0.198555 1.16844 -5.31531 4.08374
-142.192 83.0672 16.4303 -179.893 -1.6195 -177.422 -4.70273 -3.43188 1.79161 1.14192 1.62282 0.465985 4.75465 8.26382 1.96847 -2.33137 -30.1648 1.41408 -0.0 0.0 0.0 -0.0 0.0 0.0 2.49444e-15 -6.22738e-15 2.98891e-14 48.949 0.377144 2.80995 -3.92133 -1.36438 6.65536 -0.0579777 14.3961 2.01891 -4.18243e-10 3.24519e-10 -9.91556e-11 -7.24777e-10 5.58495e-10 -1.61939e-10 -4.18226e-10 3.24513e-10 -9.91649e-11 7.73091 5.47488 0.417314 -4.18235e-10 3.24511e-10 -9.9152e-11 2.90554 0.965183 0.102902 -4.18225e-10 3.24511e-10 -9.91529e-11 10.2786 0.731801 0.0259123 -4.18247e-10 3.24516e-10 -9.91478e-11 2.22167 -0.733487 -0.20892 2.44439e-15 -6.24731e-15 2.94605e-14 -45.88 -4.97925 -3.92312 2.71759 -0.857481 -4.63244 0.0571304 14.3384 -2.01067 -1.02721e-10 -1.3071e-10 -3.79634e-10 -1.84805e-10 -2.29359e-10 -6.52827e-10 -1.02726e-10 -1.30708e-10 -3.79619e-10 -7.73091 5.47488 -0.417314 -1.0272e-10 -1.30709e-10 -3.79636e-10 -2.90554 0.965183 -0.102902 -1.02726e-10 -1.30709e-10 -3.79635e-10 -10.2786 0.731801 -0.0259123 -1.02717e-10 -1.30708e-10 -3.79646e-10 -2.22167 -0.733487 0.20892 -2.03217e-16 0.0 -3.88251e-19 -7.266 -5.07964 4.29236 -0.0281291 6.17407 -0.00508712 -0.621142 4.12535 -11.137 2.03217e-16 0.0 3.88251e-19 -2.04402 -10.1023 3.11801 0.0169138 20.036 -0.346243 2.69726 -11.0925 8.59114
-142.144 83.0696 16.426 -179.731 -1.4575 -177.433 -6.06624 -5.00086 2.6431 1.85022 2.36382 0.715341 6.73591 12.0385 2.89646 -2.70575 -43.9628 2.46569 -0.0 0.0 0.0 -0.0 0.0 0.0 2.53987e-16 -1.17404e-14 4.19339e-14 71.3704 0.499809 4.09977 -5.60685 -1.97169 9.69801 -0.448603 21.024 3.06129 -6.42212e-10 4.56339e-10 -1.14969e-10 -1.11205e-09 7.8485e-10 -1.8503e-10 -6.42191e-10 4.5633e-10 -1.14976e-10 7.73091 5.47488 0.417314 -6.42201e-10 4.56327e-10 -1.14964e-10 2.90554 0.965183 0.102902 -6.42192e-10 4.56327e-10 -1.14964e-10 10.2786 0.731801 0.0259123 -6.4222e-10 4.56335e-10 -1.1496e-10 2.22167 -0.733487 -0.20892 2.26842e-16 -1.17681e-14 4.1492e-14 -67.1458 -7.2476 -5.74797 3.91439 -1.24483 -6.75217 0.442791 20.9046 -3.04243 -1.54026e-10 -1.72077e-10 -5.65986e-10 -2.77102e-10 -3.02662e-10 -9.73936e-10 -1.54029e-10 -1.72076e-10 -5.6597e-10 -7.73091 5.47488 -0.417314 -1.54024e-10 -1.72076e-10 -5.65987e-10 -2.90554 0.965183 -0.102902 -1.54027e-10 -1.72075e-10 -5.65988e-10 -10.2786 0.731801 -0.0259123 -1.54018e-10 -1.72074e-10 -5.65999e-10 -2.22167 -0.733487 0.20892 -2.03217e-16 0.0 -3.88251e-19 -10.146 -6.50703 6.27829 -0.0436688 9.93861 0.028504 -0.63543 4.13841 -16.2945 2.03217e-16 0.0 3.88251e-19 -2.07091 -11.7204 4.48282 0.0754315 26.3358 -0.49441 4.86567 -16.0834 12.8466
-142.139 83.0585 16.4292 -179.747 -1.3515 -177.41 -6.95131 -6.09311 3.26077 2.34054 2.87228 0.895449 8.02848 14.6468 3.5346 -2.42858 -53.522 3.58208 -0.0 0.0 0.0 -0.0 0.0 0.0 -1.18968e-15 -2.52299e-14 4.47266e-14 86.9927 0.405345 5.00538 -6.72158 -2.37521 11.7813 -0.892136 25.7945 3.89472 -7.94369e-10 4.86886e-10 -1.67011e-11 -1.37281e-09 8.35217e-10 -1.25592e-11 -7.94347e-10 4.86876e-10 -1.67075e-11 7.73091 5.47488 0.417314 -7.94358e-10 4.86873e-10 -1.66947e-11 2.90554 0.965183 0.102902 -7.94349e-10 4.86873e-10 -1.66947e-11 10.2786 0.731801 0.0259123 -7.94378e-10 4.86882e-10 -1.66916e-11 2.22167 -0.733487 -0.20892 -1.19564e-15 -2.526e-14 4.42793e-14 -82.0841 -8.83566 -7.04434 4.72269 -1.50806 -8.21438 0.870305 25.5035 -3.84428 -8.38339e-11 -1.33245e-10 -7.39256e-10 -1.5953e-10 -2.37635e-10 -1.2747e-09 -8.38362e-11 -1.33245e-10 -7.3924e-10 -7.73091 5.47488 -0.417314 -8.38312e-11 -1.33243e-10 -7.39256e-10 -2.90554 0.965183 -0.102902 -8.38332e-11 -1.33243e-10 -7.39258e-10 -10.2786 0.731801 -0.0259123 -8.38245e-11 -1.33241e-10 -7.39269e-10 -2.22167 -0.733487 0.20892 -2.03217e-16 0.0 -3.88251e-19 -12.0877 -7.48738 7.66968 -0.0566895 12.4973 0.0510915 -0.622568 4.16649 -19.8385 2.03217e-16 0.0 3.88251e-19 -2.0471 -12.8534 5.3891 0.139157 30.7436 -0.611903 6.87174 -19.4396 16.0359
-142.134 83.0455 16.4343 -179.781 -1.1982 -177.377 -7.20848 -6.52184 3.5587 2.53149 3.05101 0.982162 8.48865 15.6189 3.72296 -2.10442 -57.1579 4.05939 -0.0 0.0 0.0 -0.0 0.0 0.0 -8.70942e-16 -5.59019e-14 3.23685e-14 93.107 -0.0366371 5.36996 -7.10486 -2.50951 12.5151 -1.14057 28.0224 4.3122 -8.74731e-10 3.64428e-10 2.864e-10 -1.50515e-09 6.19005e-10 5.1218e-10 -8.74712e-10 3.64422e-10 2.86395e-10 7.73091 5.47488 0.417314 -8.74723e-10 3.64419e-10 2.86407e-10 2.90554 0.965183 0.102902 -8.74715e-10 3.6442e-10 2.86407e-10 10.2786 0.731801 0.0259123 -8.7474e-10 3.64429e-10 2.86412e-10 2.22167 -0.733487 -0.20892 -8.56699e-16 -5.59256e-14 3.19255e-14 -88.0179 -9.48382 -7.58541 5.01018 -1.59962 -8.74186 1.08314 27.3668 -4.19311 1.94368e-10 4.66218e-11 -9.50739e-10 3.16021e-10 6.99363e-11 -1.64527e-09 1.94366e-10 4.66213e-11 -9.50725e-10 -7.73091 5.47488 -0.417314 1.94371e-10 4.66227e-11 -9.50739e-10 -2.90554 0.965183 -0.102902 1.94368e-10 4.66229e-11 -9.50742e-10 -10.2786 0.731801 -0.0259123 1.94378e-10 4.66256e-11 -9.50752e-10 -2.22167 -0.733487 0.20892 -2.03217e-16 0.0 -3.88251e-19 -12.8228 -7.86675 8.20943 -0.061301 13.3651 0.0572396 -0.574839 4.26433 -21.1162 2.03217e-16 0.0 3.88251e-19 -2.03691 -13.3266 5.62969 0.170744 32.5082 -0.663903 7.82784 -20.7575 17.4296
-142.095 83.0397 16.4303 -179.676 -0.997 -177.381 -7.02956 -6.47758 3.62579 2.51029 2.99447 1.00186 8.38428 15.4252 3.57945 -2.09443 -56.5738 3.75978 -0.0 0.0 0.0 -0.0 0.0 0.0 6.75851e-16 -9.85607e-14 9.29318e-15 92.4279 -0.724837 5.34886 -6.98048 -2.45606 12.2843 -1.17044 28.4385 4.38613 -9.02441e-10 1.33215e-10 7.33663e-10 -1.54344e-09 2.13341e-10 1.2848e-09 -9.02429e-10 1.33215e-10 7.33659e-10 7.73091 5.47488 0.417314 -9.02439e-10 1.33213e-10 7.3367e-10 2.90554 0.965183 0.102902 -9.02433e-10 1.33215e-10 7.33668e-10 10.2786 0.731801 0.0259123 -9.02448e-10 1.33223e-10 7.33677e-10 2.22167 -0.733487 -0.20892 7.09536e-16 -9.85716e-14 8.86145e-15 -87.4824 -9.46749 -7.57834 4.93276 -1.57012 -8.60206 1.06873 27.2816 -4.17553 6.19344e-10 3.25857e-10 -1.18683e-09 1.04422e-09 5.48426e-10 -2.06103e-09 6.19342e-10 3.25857e-10 -1.18681e-09 -7.73091 5.47488 -0.417314 6.19347e-10 3.25858e-10 -1.18683e-09 -2.90554 0.965183 -0.102902 6.1934e-10 3.25858e-10 -1.18683e-09 -10.2786 0.731801 -0.0259123 6.19354e-10 3.2586e-10 -1.18684e-09 -2.22167 -0.733487 0.20892 -2.03217e-16 0.0 -3.88251e-19 -12.7205 -7.82182 8.13691 -0.0589125 13.0253 0.0514009 -0.50797 4.42243 -20.7755 2.03217e-16 0.0 3.88251e-19 -2.05523 -13.3311 5.38985 0.168444 32.3847 -0.661899 7.82744 -20.6951 17.4494
-142.065 83.0373 16.4381 -179.611 -0.807 -177.341 -6.68841 -6.24305 3.57875 2.40592 2.85066 0.988464 8.05625 14.7846 3.31179 -2.16433 -54.323 3.20507 -0.0 0.0 0.0 -0.0 0.0 0.0 1.67882e-15 -1.36389e-13 -1.45524e-14 89.0246 -1.44074 5.17921 -6.65427 -2.3284 11.6726 -1.09818 28.0652 4.30506 -8.63105e-10 -1.23542e-10 1.1664e-09 -1.46619e-09 -2.35789e-10 2.031e-09 -8.631e-10 -1.23536e-10 1.16639e-09 7.73091 5.47488 0.417314 -8.63109e-10 -1.23538e-10 1.1664e-09 2.90554 0.965183 0.102902 -8.63103e-10 -1.23535e-10 1.1664e-09 10.2786 0.731801 0.0259123 -8.6311e-10 -1.23529e-10 1.16641e-09 2.22167 -0.733487 -0.20892 1.72935e-15 -1.36387e-13 -1.49683e-14 -84.3461 -9.19991 -7.33321 4.72085 -1.497 -8.21659 0.96147 26.4152 -4.00995 1.04236e-09 5.98833e-10 -1.34231e-09 1.77081e-09 1.01707e-09 -2.33759e-09 1.04236e-09 5.98832e-10 -1.3423e-09 -7.73091 5.47488 -0.417314 1.04237e-09 5.98832e-10 -1.34231e-09 -2.90554 0.965183 -0.102902 1.04236e-09 5.98832e-10 -1.34231e-09 -10.2786 0.731801 -0.0259123 1.04237e-09 5.98834e-10 -1.34232e-09 -2.22167 -0.733487 0.20892 -2.03217e-16 0.0 -3.88251e-19 -12.2813 -7.59725 7.82583 -0.0539675 12.2066 0.0410442 -0.445117 4.5919 -19.7996 2.03217e-16 0.0 3.88251e-19 -2.08408 -13.1372 4.96363 0.152237 31.4977 -0.637802 7.43127 -20.0729 16.9111
